<svg width="32" height="32" viewBox="0 0 32 32" fill="none" xmlns="http://www.w3.org/2000/svg">
<rect width="32" height="32" fill="black"/>
<path d="M10.6667 16L10.6667 10.6667C10.6667 7.72115 13.0545 5.33334 16 5.33334V5.33334C18.9455 5.33334 21.3333 7.72115 21.3333 10.6667L21.3333 16" stroke="white" stroke-width="2" stroke-linecap="round"/>
<path d="M5.02768 15.6678C5.17276 13.9269 5.24529 13.0565 5.81938 12.5282C6.39347 12 7.26693 12 9.01386 12H22.9861C24.7331 12 25.6065 12 26.1806 12.5282C26.7547 13.0565 26.8272 13.9269 26.9723 15.6678L27.8195 25.8339C27.904 26.8474 27.9462 27.3542 27.6491 27.6771C27.352 28 26.8435 28 25.8264 28H6.1736C5.15655 28 4.64802 28 4.35092 27.6771C4.05382 27.3542 4.09605 26.8474 4.18051 25.8339L5.02768 15.6678Z" stroke="white" stroke-width="2"/>
</svg>
