<svg width="24" height="24" viewBox="0 0 24 24" fill="none" xmlns="http://www.w3.org/2000/svg">
<path d="M23.8639 22.5396C22.1083 19.3834 19.4029 17.1201 16.2455 16.0472C17.8073 15.0804 19.0207 13.6072 19.6994 11.8538C20.378 10.1004 20.4845 8.16383 20.0023 6.34145C19.5202 4.51906 18.4762 2.91164 17.0305 1.76604C15.5849 0.620441 13.8176 0 12 0C10.1824 0 8.41515 0.620441 6.9695 1.76604C5.52385 2.91164 4.47979 4.51906 3.99765 6.34145C3.51552 8.16383 3.62196 10.1004 4.30065 11.8538C4.97933 13.6072 6.19272 15.0804 7.75448 16.0472C4.59714 17.1189 1.89168 19.3822 0.136065 22.5396C0.071683 22.6488 0.0289793 22.7703 0.0104728 22.8969C-0.00803369 23.0235 -0.00196803 23.1527 0.0283119 23.2768C0.0585918 23.4009 0.112473 23.5175 0.186775 23.6196C0.261078 23.7218 0.354297 23.8074 0.460934 23.8714C0.56757 23.9355 0.685463 23.9767 0.807656 23.9926C0.92985 24.0085 1.05387 23.9988 1.1724 23.964C1.29092 23.9293 1.40156 23.8702 1.49777 23.7903C1.59399 23.7103 1.67384 23.6112 1.7326 23.4986C3.90435 19.5955 7.74295 17.2652 12 17.2652C16.257 17.2652 20.0957 19.5955 22.2674 23.4986C22.3262 23.6112 22.406 23.7103 22.5022 23.7903C22.5984 23.8702 22.7091 23.9293 22.8276 23.964C22.9461 23.9988 23.0702 24.0085 23.1923 23.9926C23.3145 23.9767 23.4324 23.9355 23.5391 23.8714C23.6457 23.8074 23.7389 23.7218 23.8132 23.6196C23.8875 23.5175 23.9414 23.4009 23.9717 23.2768C24.002 23.1527 24.008 23.0235 23.9895 22.8969C23.971 22.7703 23.9283 22.6488 23.8639 22.5396ZM5.54469 8.63422C5.54469 7.30652 5.92329 6.00863 6.63261 4.90469C7.34193 3.80075 8.35011 2.94033 9.52966 2.43224C10.7092 1.92416 12.0072 1.79122 13.2594 2.05024C14.5116 2.30926 15.6618 2.94861 16.5646 3.88743C17.4674 4.82626 18.0822 6.02239 18.3313 7.32458C18.5804 8.62677 18.4525 9.97652 17.9639 11.2032C17.4753 12.4298 16.6479 13.4782 15.5864 14.2158C14.5248 14.9535 13.2767 15.3472 12 15.3472C10.2885 15.3453 8.64764 14.6374 7.43743 13.3789C6.22722 12.1204 5.54652 10.414 5.54469 8.63422Z" fill="#E5E4E2"/>
</svg>
