<svg xmlns="http://www.w3.org/2000/svg" width="200" height="150" viewBox="2.29 -30.153 2682.99 807.153"><path d="M725.27 13.48H884.8V205.6h16.9l201.15-192.12h217.23l-281.94 255.6 314.91 267.15H1131.7l-230-200.77h-16.9v200.77H725.26zM252.9 330.93h179.3l-91.09-196.24zm0 0h179.3l-91.09-196.24zm0 0h179.3l-91.09-196.24zm-2.89-317.45h182.6l251.44 522.34h-155.8l-43.7-92.34H200.14l-41.22 92.34H2.29zm0 0h182.6l251.44 522.34h-155.8l-43.7-92.34H200.14l-41.22 92.34H2.29zm0 0h182.6l251.44 522.34h-155.8l-43.7-92.34H200.14l-41.22 92.34H2.29zm1644.24 143.47 20.61-130.69A1423 1423 0 0 0 1693.93.3c-88.21-2.06-163.65 7-186.73 11.13-42.87 7.42-78.73 21.44-107.17 42.05a183.4 183.4 0 0 0-63.48 84.1c-14.01 35.87-21.02 81.22-21.02 136.88s7 101 21.02 136.05a184 184 0 0 0 63.07 82.86c28.03 19.79 63.89 33.8 106.76 40.82a998 998 0 0 0 155.4 11.13c112.11 0 237.42-31.34 260.91-41.23V261.66h-241.13v98.95h104.7v42.87a748 748 0 0 1-124.49 14.02c-186.3 4.95-199.08-67.6-199.08-144.7 0-68.44 23.9-124.92 110.05-136.05s195.8-5.36 321.51 20.2m-977.72 450.6v66.8h-79.55v-66.8h-32.15v150.49h32.15v-70.09h79.55v54a19 19 0 0 0 2.06 8.25 14 14 0 0 0 4.95 4.95 18 18 0 0 0 6.6 2.48q3.06.51 6.18.4h12.36V607.57zm628.6 150.08V607.15h-31.33l-63.07 111.3-64.3-111.3h-31.74v150.48h16.49V640.94l67.6 116.67h8.24l65.95-115.84v99.35a19 19 0 0 0 2.06 8.25 14 14 0 0 0 4.95 4.94 18 18 0 0 0 6.6 2.48q3.07.51 6.18.41zm201.97 0-80.38-153.78h-9.48l-82.44 153.77h18.96l25.56-47.82h58.53l-8.25-15.25h-42.04l27.2-50.71 53.18 101.83a18.6 18.6 0 0 0 7.83 9.07 20.6 20.6 0 0 0 11.96 2.89zm167.35-150.07a7 7 0 0 0-2.89.4 4.7 4.7 0 0 0-3.3 1.25 7.8 7.8 0 0 0-3.7 6.6v96.88l-107.17-105.13h-20.61v150.48h18.96V644.67l108.82 109.66c4.53 4.12 10.71 3.7 16.48 3.7h2.06V607.56zm-843.76-3.3h-9.48l-82.44 153.77h18.96l61-113.78 25.98 50.3h-42.46l-8.24 15.25h58.94l18.55 35.87a18.6 18.6 0 0 0 7.83 9.07 20.6 20.6 0 0 0 11.96 2.89h19.78zm206.92 141.4-47.4-56.47h-16.49v68.84h-32.15V607.56h58.95s24.31-.41 40.39 7.42c16.07 7.83 22.67 18.55 22.67 32.57s-8.65 30.1-39.16 38.34l61.42 71.74h-24.74a35 35 0 0 1-11.12-2.07c-5.77-1.64-12.37-9.9-12.37-9.9m-64.3-124.91v56.9h14.84s14.84.4 24.32-5.36c9.48-5.78 16.49-12.79 16.49-23.92a28.3 28.3 0 0 0-17.73-25.15 38 38 0 0 0-16.49-2.88h-21.43zm-535.85 66.79h4.95v28.86a21.5 21.5 0 0 1 16.07-7.01c11.95 0 20.2 8.66 20.2 21.43 0 14.85-9.9 24.33-25.14 24.33a43 43 0 0 1-16.08-3.3zm4.95 61.02a35 35 0 0 0 11.13 2.05 19.4 19.4 0 0 0 13.94-5.08 19.4 19.4 0 0 0 6.25-13.47v-.82c0-10.3-6.6-17.73-15.66-17.73-5.77 0-10.3 2.47-15.66 8.66zM733.1 777h-4.95l15.66-31.33-18.96-35.04h4.95l16.49 30.5 15.66-30.5h4.95zm1233.7-675.3a31 31 0 0 1-21.85-9.06 32 32 0 0 1-9.07-22.26 30.9 30.9 0 0 1 19.1-28.55 30.9 30.9 0 0 1 33.66 6.7 30.85 30.85 0 0 1 0 43.7 31.3 31.3 0 0 1-21.84 9.48m0-56.9a25.35 25.35 0 1 0 25.56 25.15 25.6 25.6 0 0 0-7.43-17.73 22.8 22.8 0 0 0-18.13-7.42m7.83 42.88v-.41l-.41-1.65v-2.89c0-3.7-.82-6.18-2.89-7a17 17 0 0 0-6.18-1.24h-4.12v13.19h-7.01V53.06h12.37c3.2-.02 6.39.4 9.48 1.24a8.9 8.9 0 0 1 5.36 9.07 6.9 6.9 0 0 1-3.71 7l-2.48 1.24a6.6 6.6 0 0 1 3.71 2.89 8.7 8.7 0 0 1 2.06 5.36v4.95c0 .82 0 1.23.42 1.64l.4 1.24zm-9.07-18.55a24 24 0 0 0 5.36-.83 4.45 4.45 0 0 0 2.89-4.53 6.6 6.6 0 0 0-2.06-4.54 19 19 0 0 0-7.01-1.23h-4.54v10.72h5.36zm0 0"/></svg>