<!--?xml version="1.0" encoding="UTF-8"?-->
<svg viewBox="0 0 92 80.1" xmlns="http://www.w3.org/2000/svg" id="Layer_1">
  <polygon style="fill: #fff;" points="5.9 79.9 .2 71.4 13 71.4 18.7 61.7 23.9 70.6 18.6 79.9 5.9 79.9"></polygon>
  <polygon style="fill: #fff;" points="86.3 78.3 52.9 20.5 39.4 43.8 29.1 43.8 52.8 2.7 92 70.2 86.3 78.3"></polygon>
  <polygon style="fill: #fff;" points="82.8 80.1 52.9 28.4 47.7 37.4 60.8 59.8 22 59.8 26.6 67.8 65.4 67.8 72.5 80.1 82.8 80.1"></polygon>
  <polygon style="fill: #fff;" points="22.3 47.7 49.9 0 39.2 0 0 67.6 10.8 67.6 17.7 55.8 54 55.8 49.4 47.7 22.3 47.7"></polygon>
</svg>