<svg xmlns="http://www.w3.org/2000/svg" width="2500" height="2500" viewBox="0 0 192.756 192.756"><g fill-rule="evenodd" clip-rule="evenodd"><path fill="#fff" d="M0 0h192.76v192.76H0z"/><path d="M154.39 89.05h32.34l3.2-3.62H143.6l-12.86 21.9h30.02l2.16-3.62h-17.17l3.28-5.52h17.16l2.07-3.62H151.2zm-24.76 5.52h-12.76l2.07-3.54c.86-1.47 1.64-1.98 2.93-1.98s1.73 1.03 1.04 2.33h13.02l1.3-2.33c.94-1.73.94-3.63-1.39-3.63H112.9c-2.07 0-3.7.26-4.92 2.25l-4.05 6.9c-1.12 1.98-1.03 3.62 1.73 3.62h13.2l-2.17 3.8c-.6 1.03-1.37 1.72-3.19 1.72-1.55 0-1.46-1.03-.77-2.07H99.79l-1.55 2.59c-.95 1.64-.17 3.1 2.07 3.1h22.77c2.07 0 3.88-.95 4.91-2.67l3.88-6.47c.87-1.64.44-3.62-2.24-3.62"/><path d="M185.05 89.69c-1.06 0-1.91.82-1.91 1.83 0 1.04.85 1.86 1.9 1.86s1.9-.83 1.9-1.86c0-1-.85-1.83-1.9-1.83m0 3.33a1.5 1.5 0 0 1-1.54-1.5c0-.81.69-1.47 1.54-1.47s1.54.66 1.54 1.47c0 .85-.69 1.5-1.54 1.5m-84.82-7.6H80.73c-2.67 0-6.12 0-8.2 3.63l-8.62 14.66c-1.2 1.98-.17 3.62 2.07 3.62h22.68c2.33 0 3.8-.69 5.61-3.62l8.62-14.66c1.13-1.9-.6-3.62-2.67-3.62m-10.95 5.6-6.47 10.95c-.86 1.56-1.64 1.73-3.62 1.73s-2.5-.69-1.9-1.73l6.55-10.95c.95-1.64 2.07-1.98 3.71-1.98s2.6.51 1.73 1.98m-23.2-5.6H41.06L30.27 103.7H6.47l-3.64 3.62h51.68c3.2 0 4.23-1.55 4.92-2.76L62 100.1c.7-1.21.7-2.6-.69-3.37 1.39 0 3.28-.94 4.4-2.93l2.59-4.4c1.3-2.15-.26-3.96-2.24-3.96m-12.85 14.74-1.3 2.07a2.45 2.45 0 0 1-2.41 1.47h-6.38l3.28-5.52h6.2c1.12 0 1.12 1.04.6 1.98m5.44-9.14-1.3 2.07a2.4 2.4 0 0 1-2.4 1.47h-6.39l3.28-5.52h6.2c1.13 0 1.13 1.03.61 1.98"/><path d="M186.02 91.04c0-.17-.08-.35-.24-.44s-.34-.1-.52-.1h-.92v2.07h.31v-.96h.37l.61.96h.36l-.64-.96c.37 0 .67-.16.67-.57m-1.02.32h-.35v-.63h.55c.27 0 .5.04.5.3 0 .38-.4.33-.7.33"/></g></svg>