<svg xmlns="http://www.w3.org/2000/svg" width="2500" height="2500" viewBox="0 0 192.756 192.756"><g fill-rule="evenodd" clip-rule="evenodd"><path fill="#fff" d="M0 0h192.76v192.76H0z"/><path d="M51.48 76.43v4.22a27 27 0 0 0-14.39-3.43c-7.76.25-14.68 5.99-17.55 13.6l.28-1.9.45-1.85.6-1.79.78-1.71.9-1.63 1.05-1.54 1.16-1.43 1.28-1.3 1.37-1.18 1.46-1.03 1.54-.88 1.6-.7 1.67-.55a23 23 0 0 1 2.58-.45l1.32-.07a32 32 0 0 1 3.58.17 29 29 0 0 1 3.9.74 27 27 0 0 1 4.57 1.73q.93.47 1.85.98m7.08 49.52v4.25c-7.31 3.65-12.9 5.8-20.1 5.71-16.64-.22-31.64-10.65-34.95-30.27l.4 1.25.68 1.87.77 1.8.84 1.74.92 1.66 1 1.6 1.05 1.5 1.12 1.45 1.19 1.37 1.25 1.3 1.3 1.22 1.36 1.14 1.4 1.07 1.46 1 1.5.92 1.54.84 1.59.76 1.62.69 1.65.6 1.69.54 1.7.45 1.75.38 1.76.3 1.78.22 1.8.14 1.8.06a42 42 0 0 0 3.4-.12 41 41 0 0 0 3.25-.44 42 42 0 0 0 4.39-1.14 60 60 0 0 0 3.76-1.4q2.7-1.16 5.33-2.46m-7.08-67.22v16.2a27 27 0 0 0-14.39-3.42c-10.2.33-18.97 10.16-18.95 21.24 0 11.76 7.02 20.6 19.63 20.78 12.76.18 18.39-6.28 20.79-14.61v25.57c-7.31 3.66-12.9 5.8-20.1 5.71-18.8-.24-35.5-13.52-35.63-38.36-.07-15.3 12.68-35 32.43-35.63 6.28-.2 11.2.76 16.22 2.52m104.23-2.1c21.2.27 33.64 18.18 34.21 35.36v36.96h-14.6v-36.5c-.02-9.63-9.56-19.96-19.84-20.07-13.86-.15-21.67 8.14-22.32 20.45l-.17-1.96-.13-1.92-.23-1.9-.32-1.87-.41-1.84-.5-1.8-.58-1.76-.66-1.72-.75-1.68-.82-1.63-.9-1.59-.97-1.54-1.04-1.48-.1-.12c6.92-8.35 17.74-13.54 30.12-13.38m-22.4 41.11c1.19 9.72 7.79 16.01 19.67 17.28 5.14.55 9.73-1.37 13.68-3.42v16.2c-5.08 1.58-9.17 1.68-13 1.6-10.39-.24-19.45-4.1-25.9-10.7l.33-.54.76-1.42.7-1.47.65-1.51.58-1.56.52-1.6.46-1.65.38-1.69c.53-1.9 1.03-4.25 1.17-9.3zm56.62 32.51v4.5h-14.6v-4.5zM173.96 91.8c-2.99-7.29-10.5-13.52-18.48-13.6-10.79-.12-17.9 4.87-20.84 12.9l.23-1.65.46-2.04.62-1.91.79-1.79.93-1.65 1.09-1.52 1.23-1.38 1.4-1.24.74-.57.8-.53.82-.49.87-.45.9-.41.95-.37 2-.62 2.18-.45 2.32-.26 2.48-.07.9.04.87.09 1.74.33 1.71.53 1.67.7 1.61.88 1.54 1.03 1.46 1.17 1.35 1.3 1.24 1.4 1.12 1.48.98 1.56.82 1.61.66 1.65.48 1.67.3 1.67zm-7.3 37.39v4.44c-5.09 1.58-9.18 1.68-13.01 1.6-11.64-.27-21.6-5.09-28.1-13.19l.84-1.15.66-1.02.57.57 1.27 1.16 1.33 1.1 1.38 1.03 1.44.97 1.48.9 1.54.83 1.57.76 1.63.7 1.66.61 1.7.55 1.75.47 1.79.4 1.81.32 1.85.24 1.89.16 1.9.08c1.94.04 3.85.02 5.79-.14a38 38 0 0 0 6.19-1.1zM59.81 85.06c-.07-18.06-.45-36.13-.01-54.19h15.05v30.28l-1.16.84-1.38 1.12-1.33 1.2-1.27 1.26-1.22 1.35-1.16 1.43-1.1 1.5-1.03 1.59-.97 1.65-.9 1.73-.83 1.8-.76 1.88-.69 1.95-.6 2.01-.54 2.1zm0 71.14c0-20.04-.5-40.09 0-60.12.67-25.82 16.48-39.85 35.35-39.81 20.62.05 36.66 16.28 36.56 36.56-.11 22.12-15.74 35.83-35.34 36.97-4.2.24-7.38 0-12.6-3.25V111.1c4.15 2.4 8.43 4.54 13.82 4.13 9.99-.77 19.21-8.76 19.09-22-.11-11.57-5.87-20.34-20.31-20.32-15.83.04-21.55 10.58-21.53 23.16l.06 60.14zm0 5.68v-4.37l15.04.03v4.36zm71.35-56.54c-2.96 18.09-17.28 29.12-34.78 30.14-4.2.24-7.38 0-12.6-3.25v-4.15q.85.5 1.71.95a24 24 0 0 0 3.47 1.42 20 20 0 0 0 2.4.54q1.76.22 3.5.18c1.8-.04 3.55-.22 5.32-.43l1.83-.3 1.8-.37 1.77-.45 1.73-.51 1.7-.59 1.65-.66 1.62-.73 1.58-.8 1.53-.87 1.48-.93 1.43-1 1.39-1.08 1.32-1.13 1.27-1.2 1.21-1.27 1.15-1.33 1.09-1.4 1.02-1.45.95-1.51.88-1.57.81-1.63.73-1.69.66-1.74zm-16.01-15.49c-2.56-6.78-8.45-11.27-18.77-11.24-11.1.02-17.23 5.21-19.9 12.66l.1-.7.4-2.06.56-1.96.71-1.85.86-1.73 1.02-1.6.57-.75.6-.7.66-.68.7-.64.74-.6.8-.57.83-.52.89-.48.93-.44 1-.39 1.04-.35 1.1-.3 1.16-.25 1.22-.2 1.27-.14 1.34-.09 1.4-.03 2.5.1 2.29.27 2.09.46 1.89.62.87.36.83.4 1.52.93.7.5 1.28 1.13 1.11 1.24.98 1.38.82 1.5.7 1.6.54 1.73.41 1.83q.14.78.24 1.56"/></g></svg>