<svg id="Lag_1" data-name="Lag 1" xmlns="http://www.w3.org/2000/svg" viewBox="0 0 247.67 82.18"><defs><style>.cls-1,.cls-2,.cls-3{fill:#1d1d1b;}.cls-1,.cls-2{stroke:#1d1d1b;}.cls-1{stroke-width:0.04px;}.cls-2{stroke-width:0.5px;}</style></defs><title>DPA-Logo-Black-screen</title><rect class="cls-1" x="215.77" y="0.02" width="2.19" height="11.33"/><polygon class="cls-1" points="221.71 0.52 223.94 0.98 220.2 19.66 217.92 19.2 221.71 0.52"/><rect class="cls-1" x="221.87" y="7.96" width="11.33" height="2.19" transform="translate(133.01 215.24) rotate(-68.01)"/><polygon class="cls-1" points="233.02 4.76 234.92 6.02 224.46 21.94 222.51 20.66 233.02 4.76"/><rect class="cls-1" x="230.15" y="13.72" width="11.33" height="2.19" transform="translate(60.36 172.69) rotate(-45.98)"/><polygon class="cls-1" points="241.96 13 243.25 14.89 227.58 25.72 226.26 23.81 241.96 13"/><rect class="cls-1" x="235.41" y="21.93" width="11.32" height="2.19" transform="translate(10.54 98.62) rotate(-24)"/><polygon class="cls-1" points="246.85 23.89 247.35 26.12 228.76 30.29 228.25 28.02 246.85 23.89"/><rect class="cls-1" x="237.22" y="31.62" width="11.33" height="2.19" transform="translate(-1.92 7.06) rotate(-1.99)"/><polygon class="cls-1" points="247.32 35.94 246.95 38.19 228.15 35.1 228.53 32.8 247.32 35.94"/><rect class="cls-1" x="239.84" y="36.48" width="2.19" height="11.33" transform="translate(117.94 252.7) rotate(-69.98)"/><polygon class="cls-1" points="243.26 47.04 242.06 48.98 225.79 39.08 227 37.09 243.26 47.04"/><rect class="cls-1" x="234.1" y="44.68" width="2.19" height="11.33" transform="translate(39.48 190.04) rotate(-48)"/><polygon class="cls-1" points="234.92 55.99 233.08 57.35 221.71 42.07 223.57 40.68 234.92 55.99"/><rect class="cls-1" x="216.59" y="52.14" width="2.19" height="11.32" transform="translate(-1.89 2.33) rotate(-0.98)"/><polygon class="cls-1" points="212.03 61.69 209.79 61.27 213.21 42.53 215.5 42.95 212.03 61.69"/><rect class="cls-1" x="202.3" y="54.71" width="11.33" height="2.19" transform="translate(78.9 227.45) rotate(-68.5)"/><polygon class="cls-1" points="200.65 57.48 198.73 56.24 209.06 40.23 211.02 41.49 200.65 57.48"/><rect class="cls-1" x="194.23" y="49.28" width="11.32" height="2.19" transform="translate(23.83 157.71) rotate(-45.98)"/><polygon class="cls-1" points="191.89 49.37 190.59 47.49 206.26 36.65 207.59 38.57 191.89 49.37"/><rect class="cls-1" x="188.83" y="41.17" width="11.32" height="2.19" transform="translate(-1.66 79.62) rotate(-23.49)"/><polygon class="cls-1" points="186.87 38.53 186.39 36.3 205.02 32.28 205.51 34.56 186.87 38.53"/><rect class="cls-1" x="186.89" y="31.36" width="11.33" height="2.19" transform="translate(-1.48 2) rotate(-1.01)"/><polygon class="cls-1" points="186.33 26.33 186.75 24.09 205.49 27.5 205.07 29.8 186.33 26.33"/><rect class="cls-1" x="193.14" y="17.41" width="2.19" height="11.32" transform="translate(100.75 193.98) rotate(-68.53)"/><polygon class="cls-1" points="190.22 15.28 191.46 13.37 207.47 23.7 206.2 25.66 190.22 15.28"/><rect class="cls-1" x="198.79" y="9.02" width="2.19" height="11.33" transform="translate(49.49 146.81) rotate(-45.98)"/><polygon class="cls-1" points="198.54 6.2 200.43 4.91 211.26 20.58 209.34 21.9 198.54 6.2"/><rect class="cls-1" x="206.96" y="3.58" width="2.19" height="11.32" transform="translate(12.65 82.36) rotate(-23.51)"/><polygon class="cls-1" points="209.46 1.14 211.69 0.67 215.7 19.29 213.43 19.78 209.46 1.14"/><rect class="cls-1" x="226.4" y="50.15" width="2.19" height="11.33" transform="translate(-3.96 95.98) rotate(-24.01)"/><polygon class="cls-1" points="224.29 61.12 222.06 61.61 217.88 43.03 220.15 42.52 224.29 61.12"/><circle class="cls-2" cx="216.7" cy="30.88" r="3.37"/><path class="cls-3" d="M2.5,6.35V62H27.07c12.2,0,40.58-3.12,40.58-32,0-15.68-10.19-23.63-30.3-23.63ZM22.9,52V15.24h8C40,15.24,45,22.25,45,35c0,15-9.63,18.15-17.72,18.15H22.9Z" transform="translate(-0.93 -1.41)"/><path class="cls-3" d="M76.94,6.35V62h20.4V40.8h5.26c21,0,28.85-12.77,28.85-20.81,0-11.27-9.86-13.64-18.13-13.64Zm20.4,24.43V15.24H101c6.56,0,9.89,2.45,9.89,7.29,0,6.1-5.88,9.39-11.41,9.39H97.34Z" transform="translate(-0.93 -1.41)"/><path class="cls-3" d="M146,6.35,123.83,62h10.86l4.2-11.66h21.94L165.25,62h21.87L164.5,6.35Zm-3,34.4,7-19.2,7.31,20.72H142.42Z" transform="translate(-0.93 -1.41)"/><path class="cls-3" d="M9,83.3H7.22L4.77,75.37,2.3,83.3H.93L4.18,72.44H6l2.52,8.19,2.4-8.19h1.87L16.06,83.3H13.93l-2.39-8Z" transform="translate(-0.93 -1.41)"/><path class="cls-3" d="M29.7,72.44h2.19V83.3H29.7Z" transform="translate(-0.93 -1.41)"/><path class="cls-3" d="M52.91,73.36c-2.92,0-4.56,1.48-4.56,4,0,3.67,3,5,5.23,5a5.33,5.33,0,0,0,2.17-.43v1.37a12.38,12.38,0,0,1-2.54.27c-4,0-7.26-2.17-7.26-6.18,0-2.95,2.27-5.25,6.8-5.25a21.54,21.54,0,0,1,3,.2v1.49A7.84,7.84,0,0,0,52.91,73.36Z" transform="translate(-0.93 -1.41)"/><path class="cls-3" d="M71.92,83.3H69.73V72.44h4.58c3,0,3.57,1.44,3.57,2.54,0,2.2-2.35,3-2.91,3.07l3.69,5.26H76.07l-3.41-5h-.75Zm3.64-8c0-1.47-1.37-1.7-2.23-1.7H71.92v3.56H73C74.23,77.18,75.56,76.56,75.56,75.32Z" transform="translate(-0.93 -1.41)"/><path class="cls-3" d="M103.91,77.43a6.34,6.34,0,0,1-12.68,0c0-3.61,3.14-5.28,6.38-5.28S103.91,73.86,103.91,77.43Zm-6.34,4.94c2.69,0,3.92-2.88,3.92-5a3.93,3.93,0,1,0-7.86,0C93.63,79.62,94.83,82.38,97.56,82.38Z" transform="translate(-0.93 -1.41)"/><path class="cls-3" d="M120.14,78.85V83.3H118V72.44h4.48c2.4,0,3.62,1.14,3.62,2.81,0,2-1.94,3.6-4.93,3.6Zm3.61-3.27c0-1.77-1.09-2-2.29-2h-1.32v4h.45C121.72,77.67,123.76,77.37,123.76,75.57Z" transform="translate(-0.93 -1.41)"/><path class="cls-3" d="M147.9,78.28h-5.8v5h-2.19V72.44h2.19v4.63h5.8V72.44h2.19V83.3H147.9Z" transform="translate(-0.93 -1.41)"/><path class="cls-3" d="M176.82,77.43a6.34,6.34,0,0,1-12.68,0c0-3.61,3.14-5.28,6.38-5.28S176.82,73.86,176.82,77.43Zm-6.34,4.94c2.69,0,3.92-2.88,3.92-5a3.93,3.93,0,1,0-7.86,0C166.54,79.62,167.75,82.38,170.48,82.38Z" transform="translate(-0.93 -1.41)"/><path class="cls-3" d="M198.91,80.25V72.44h1.38V83.3h-1.62l-6.49-8v8H190.8V72.44h1.86Z" transform="translate(-0.93 -1.41)"/><path class="cls-3" d="M222.82,83.3H215V72.44h7.77v1.18h-5.58v3.5h5.62V78.3h-5.62v3.81h5.61Z" transform="translate(-0.93 -1.41)"/><path class="cls-3" d="M240.85,72.15a13.35,13.35,0,0,1,2.81.34v1.44c-1.59-.71-5-1.17-5,1.21,0,1.18,1.33,1.49,2.35,1.7,1.25.22,3.34.38,3.34,2.95,0,1.93-1.55,3.8-4.58,3.8a15,15,0,0,1-3.38-.42V81.58a8.22,8.22,0,0,0,3.23.8,2.21,2.21,0,0,0,2.44-2.12c0-1.85-2.58-1.13-4.3-2.06a2.82,2.82,0,0,1-1.49-2.69C236.28,73.78,237.59,72.15,240.85,72.15Z" transform="translate(-0.93 -1.41)"/></svg>