<svg id="Dynaudio_Logo" data-name="Dynaudio Logo" xmlns="http://www.w3.org/2000/svg" viewBox="0 0 601.68 94.91"><defs><style>.cls-1{fill:#1d1d1b;}</style></defs><path class="cls-1" d="M13.28,11.64H44.05c22,0,35.08,13.34,35.08,35.51,0,23.47-13.32,36.11-35.08,36.11H13.28ZM31.93,67.21h8.82c14.13-.3,19.74-5.81,19.74-20.16,0-13-7-19.36-19.74-19.36H31.93Z"/><polygon class="cls-1" points="178.59 11.64 198.07 11.64 222.92 54.23 223.12 54.23 223.12 11.64 241.1 11.64 241.1 83.27 221.52 83.27 196.66 40.14 196.46 40.14 196.46 83.27 178.59 83.27 178.59 11.64"/><path class="cls-1" d="M278.08,11.63H297l26.77,71.63H304.34l-4.41-12.83H275l-4.52,12.83H251.32Zm1.18,44.95H295.5L287.59,31.5h-.21Z"/><path class="cls-1" d="M392.14,53.67c0,20.77-9.53,31.1-31.17,31.1s-31.18-10.33-31.18-31.1v-42h18.64V54.77c0,9.23,3.41,13.95,12.54,13.95S373.49,64,373.49,54.77V11.64h18.65Z"/><path class="cls-1" d="M406.89,11.64h30.77c21.95,0,35.08,13.34,35.08,35.51,0,23.47-13.32,36.11-35.08,36.11H406.89Zm18.62,55.57h8.83c14.12-.3,19.73-5.81,19.73-20.16,0-13-7-19.36-19.73-19.36h-8.83Z"/><rect class="cls-1" x="486.06" y="11.64" width="18.65" height="71.63"/><path class="cls-1" d="M553.12,10.14c22.56,0,35.28,16.55,35.28,37.31s-12.72,37.32-35.28,37.32-35.28-16.55-35.28-37.32,12.72-37.31,35.28-37.31m0,58.58c12,0,16.64-10.63,16.64-21.27s-4.61-21.26-16.64-21.26-16.64,10.63-16.64,21.26,4.61,21.27,16.64,21.27"/><polygon class="cls-1" points="79.35 11.64 100.84 49.88 100.84 83.27 147.57 83.27 147.57 49.88 169.06 11.64 148.59 11.64 128.92 46.53 128.92 69.83 119.49 69.83 119.49 46.53 99.83 11.64 79.35 11.64"/></svg>