<!-- Generator: Adobe Illustrator 21.0.2, SVG Export Plug-In  -->
<svg version="1.1"
	 xmlns="http://www.w3.org/2000/svg" xmlns:xlink="http://www.w3.org/1999/xlink" xmlns:a="http://ns.adobe.com/AdobeSVGViewerExtensions/3.0/"
	 x="0px" y="0px" width="705.125px" height="145.818px" viewBox="0 0 705.125 145.818"
	 style="enable-background:new 0 0 705.125 145.818;" xml:space="preserve">
<style type="text/css">
	.st0{fill:#FFFFFF;}
	.st1{fill:#00AEEF;}
</style>
<defs>
</defs>
<g>
	<polygon class="st0" points="201.25,81.62 177.083,81.62 177.083,68.286 194.75,68.286 194.75,55.954 177.083,55.954 
		177.083,43.62 199.583,43.62 199.583,31.286 177.083,31.286 160.417,31.286 160.417,43.62 160.417,55.954 160.417,68.286 
		160.417,81.62 160.417,93.619 160.417,93.953 201.25,93.953 	"/>
	<rect x="322.896" y="45.494" class="st0" width="15.812" height="48.292"/>
	<path class="st0" d="M271.417,55.786c0,0-2.333-11.334-14-11.334s-14.333,7-14.333,7s-3.166-7.166-11.833-7.166
		c-7.352,0-11.812,4.185-13,5.46v-4.294h-15.5v48.334h15.5V60.62c0,0,2.5-3.5,6.667-3.5c3.675,0,4.367,2.719,4.479,3.361v33.305
		h15.687V61.12c0,0,2.667-3.834,6.5-3.834c3.445,0,4.196,2.55,4.313,3.068v33.432h15.562V55.827h-0.089L271.417,55.786z"/>
	<path class="st0" d="M299.75,94.453c11.583,0,20.667-6.667,20.667-25.501c0-19.166-8.333-24.332-17.083-24.332
		c-7.733,0-11.518,3.79-12.083,4.406v-3.574h-15.666v72.334h15.666V92.662C294.348,94.368,299.75,94.453,299.75,94.453z
		 M291.333,60.452c0,0,2.583-3.832,6.833-3.832s6.083,3.916,6.083,12.666s-1.333,15-6.917,15c-5.559,0-6.079-3.467-6.083-3.497
		v-0.122L291.333,60.452z"/>
	<path class="st0" d="M650.334,44.62c-7.734,0-11.52,3.79-12.084,4.406V31.328h-15.666v62.459h15.666v-1.125
		c3.097,1.707,8.5,1.792,8.5,1.792c11.584,0,20.667-6.667,20.667-25.501C667.417,49.786,659.084,44.62,650.334,44.62z
		 M644.334,84.286c-5.584,0-6.084-3.5-6.084-3.5l0.084-20.334c0,0,2.583-3.832,6.833-3.832s6.083,3.916,6.083,12.666
		S649.917,84.286,644.334,84.286z"/>
	<circle class="st0" cx="330.833" cy="33.786" r="8.25"/>
	<rect x="383.146" y="45.494" class="st0" width="15.813" height="48.292"/>
	<rect x="492.771" y="31.494" class="st0" width="15.813" height="62.292"/>
	<circle class="st0" cx="391.084" cy="33.786" r="8.25"/>
	<path class="st0" d="M359.375,60.232c0.539-0.928,1.823-2.695,3.792-2.695c2.667,0,2.583,2.584,2.583,2.584v2.332
		c0,0,14.5-0.082,14.584,0c2.5-13.083-4.75-18-11.667-18c-5.622,0-8.436,3.027-9.292,4.162v-3.12h-15.812v48.292h15.812V60.232z"/>
	<path class="st0" d="M426.333,94.703c10.25,0,14.5-4.167,14.5-4.167V77.619c0,0-3.917,5.25-13.5,5.25
		c-9.583,0-8.75-10.333-8.75-13.333s0.584-14.334,10.167-14.334c8.083,0.084,12.167,5.668,12.167,5.668V48.702c0,0-4.416-4.5-14-4.5
		c-9.584,0-25.084,4.668-25.084,25.418C401.833,90.369,416.083,94.703,426.333,94.703z"/>
	<path class="st0" d="M461.583,94.452c7.92,0,11.362-3.906,11.563-4.144v3.478h15.063V60.829h-0.149
		c-0.243-12.471-8.628-16.293-18.81-16.293c-10.333,0-17.667,3.584-17.667,3.584v11.666c0,0,7.666-4.584,14.333-4.584
		c6.667,0,6.833,4.167,6.833,4.167v1.5c0,0-2.333-1.417-7.5-1.417c-8.834,0-20.333,3.75-20.333,17.667
		S453.416,94.452,461.583,94.452z M466.916,69.202c3.25,0,6.083,1.501,6.083,7.167s-3.25,6.833-6.25,6.833s-6-0.666-6-6.833
		S464.333,69.202,466.916,69.202z"/>
	<path class="st0" d="M553.584,93.786H575.5V82.25c1.864,9.649,9.157,12.202,16.208,12.202c7.92,0,11.362-3.906,11.563-4.144v3.478
		h15.062V60.829h-0.148c-0.243-12.471-8.628-16.293-18.81-16.293c-10.333,0-17.667,3.584-17.667,3.584v11.666
		c0,0,7.666-4.584,14.333-4.584s6.833,4.167,6.833,4.167v1.5c0,0-2.333-1.417-7.5-1.417c-8.834,0-20.333,3.75-20.333,17.667
		c0,1.611,0.118,3.076,0.333,4.417h-21.79V31.494h-16.562v50.042H537v12.25h0.021H553.584z M597.041,69.202
		c3.25,0,6.083,1.501,6.083,7.167s-3.25,6.833-6.25,6.833s-6-0.666-6-6.833S594.458,69.202,597.041,69.202z"/>
	<path class="st0" d="M705.125,78.536c0-13.25-11.125-15.25-16.125-16.875s-5.875-2.375-6-3.625c0-0.75,0.75-2.875,7.375-2.875
		S702,58.911,702,58.911V47.786c0,0-5.25-3.125-13.5-3.125s-17.994,3.208-18.125,15c-0.125,11.25,6.75,13.25,12.875,15.5
		s7.375,3.125,7.375,5s-1,4.125-8,4.125s-13.375-4.5-13.375-4.5v11.875c0,0,5.75,3.125,14.625,3.125S705.125,91.786,705.125,78.536z
		"/>
	<rect x="628.5" y="99.661" class="st0" width="7.875" height="16.125"/>
	<rect x="640.75" y="99.661" class="st0" width="7.875" height="16.125"/>
	<path class="st0" d="M658.188,99.286c-7,0-9.5,2.938-9.5,2.938v2.188c0,0,1.875-1.688,5.375-1.688s4.125,1.5,4.125,1.5v0.438
		h-0.062v11.125h8.125v-9.375h0.125c0,0,0-1.25,0-2.562S665.188,99.286,658.188,99.286z"/>
	<path class="st0" d="M678,107.536c0-4.062,3.75-5.625,7.75-5.625s7.062,1.312,7.062,1.312v-2.812c0,0-3.812-1.188-8.375-1.188
		s-15.25,1.25-15.25,8.625s10.375,8.062,15.5,8.062s8.188-1.125,8.188-1.125v-3c0,0-2.938,1.062-7.812,1.062
		S678,111.599,678,107.536z"/>
	<ellipse class="st0" cx="700.125" cy="113.474" rx="3.125" ry="2.625"/>
	<polygon class="st0" points="296,117.661 619.25,108.036 296,99.161 	"/>
	<polygon class="st0" points="271.417,117.786 271.417,99.119 161.417,109.286 	"/>
</g>
<path class="st1" d="M13.25,71.786l33.5-13.125c0,0-9.125-10.5-22-4.75S13.25,71.786,13.25,71.786z"/>
<path class="st1" d="M19.25,86.411l47.125-18.5l-0.125,55.25L103,138.036c0,0-27,15.5-59.5,2.75S2.25,100.661,0,93.161
	c4.75,7.125,12.5,17.25,28.25,19.125c0.091,0,24.625,4.25,37.5-20.875C62,89.161,55,86.036,48.5,82.786
	C34.875,101.161,19.25,86.411,19.25,86.411z"/>
<path class="st1" d="M111.25,13.036c0,11.125,0,18.625,0,18.625l-19.875,7.625v-32.5L96,4.911c0,0-25.552-11.991-55.875,1.5
	C10.625,19.536,1.125,48.786,1,49.786c12.5-18.75,31.375-17.75,31.375-17.75c22.375-0.625,33.25,21,34,23.875
	c0-7.375,0.125-39,0.125-39l21.75-8.875l0.125,101.25l23.375,8v15.375c0,0,31.75-19.75,31.125-61.125
	C142.875,39.661,120.625,18.411,111.25,13.036z M111.334,112.536l-19.75-5.667L91.5,42.703l19.834-7.75V112.536z"/>
</svg>