<svg xmlns="http://www.w3.org/2000/svg" xml:space="preserve" width="705.125" height="145.818"><style>.st0{fill:#fff}.st1{fill:#00aeef}</style><path d="M201.25 81.62h-24.17V68.29h17.67V55.95h-17.67V43.62h22.5V31.29h-39.16v62.66h40.83zM322.9 45.49h15.8v48.3h-15.8zm-51.48 10.3s-2.34-11.34-14-11.34-14.34 7-14.34 7-3.16-7.16-11.83-7.16a18 18 0 0 0-13 5.46v-4.3h-15.5V93.8h15.5V60.62s2.5-3.5 6.67-3.5c3.67 0 4.36 2.72 4.48 3.36v33.3h15.68V61.13s2.67-3.83 6.5-3.83c3.45 0 4.2 2.55 4.32 3.06V93.8h15.56V55.83h-.09zm28.33 38.66c11.58 0 20.67-6.66 20.67-25.5 0-19.16-8.34-24.33-17.09-24.33-7.73 0-11.51 3.79-12.08 4.4v-3.57H275.6v72.34h15.66V92.66c3.1 1.7 8.5 1.8 8.5 1.8m-8.42-34s2.59-3.84 6.84-3.84 6.08 3.92 6.08 12.67-1.33 15-6.92 15c-5.56 0-6.08-3.47-6.08-3.5v-.12zm359-15.84c-7.73 0-11.52 3.79-12.08 4.4v-17.7h-15.67V93.8h15.67v-1.13c3.1 1.7 8.5 1.8 8.5 1.8 11.58 0 20.67-6.67 20.67-25.5 0-19.17-8.34-24.34-17.09-24.34m-6 39.67c-5.58 0-6.08-3.5-6.08-3.5l.08-20.34s2.59-3.83 6.84-3.83 6.08 3.92 6.08 12.67-1.33 15-6.92 15" class="st0"/><circle cx="330.833" cy="33.786" r="8.25" class="st0"/><path d="M383.15 45.5h15.8v48.29h-15.8zm109.62-14h15.81v62.29h-15.8z" class="st0"/><circle cx="391.084" cy="33.786" r="8.25" class="st0"/><path d="M359.38 60.23c.53-.93 1.82-2.7 3.79-2.7 2.66 0 2.58 2.6 2.58 2.6v2.32s14.5-.08 14.58 0c2.5-13.08-4.75-18-11.66-18-5.62 0-8.44 3.03-9.3 4.17V45.5h-15.8v48.29h15.8zm66.95 34.47c10.25 0 14.5-4.16 14.5-4.16V77.62s-3.91 5.25-13.5 5.25-8.75-10.33-8.75-13.33.59-14.34 10.17-14.34a15.8 15.8 0 0 1 12.17 5.67V48.7s-4.42-4.5-14-4.5-25.09 4.67-25.09 25.42 14.25 25.08 24.5 25.08m35.25-.25c7.92 0 11.37-3.9 11.57-4.14v3.48h15.06V60.83h-.15c-.24-12.47-8.63-16.3-18.81-16.3-10.33 0-17.67 3.59-17.67 3.59v11.67s7.67-4.59 14.34-4.59 6.83 4.17 6.83 4.17v1.5s-2.33-1.42-7.5-1.42c-8.83 0-20.33 3.75-20.33 17.67s8.5 17.33 16.66 17.33m5.34-25.25c3.25 0 6.08 1.5 6.08 7.17s-3.25 6.83-6.25 6.83-6-.66-6-6.83 3.58-7.17 6.17-7.17m86.66 24.59h21.92V82.25c1.86 9.65 9.16 12.2 16.2 12.2 7.93 0 11.37-3.9 11.57-4.14v3.48h15.06V60.83h-.15c-.24-12.47-8.62-16.3-18.8-16.3-10.34 0-17.67 3.59-17.67 3.59v11.67s7.66-4.59 14.33-4.59 6.83 4.17 6.83 4.17v1.5s-2.33-1.42-7.5-1.42c-8.83 0-20.33 3.75-20.33 17.67q0 2.4.33 4.42h-21.79V31.49h-16.56v50.05H537v12.25zm43.46-24.59c3.25 0 6.08 1.5 6.08 7.17s-3.25 6.83-6.25 6.83-6-.66-6-6.83 3.59-7.17 6.17-7.17m108.09 9.34c0-13.25-11.13-15.25-16.13-16.88s-5.87-2.37-6-3.62c0-.75.75-2.88 7.38-2.88S702 58.91 702 58.91V47.8s-5.25-3.13-13.5-3.13-18 3.2-18.12 15c-.13 11.25 6.75 13.25 12.87 15.5s7.38 3.13 7.38 5-1 4.13-8 4.13-13.38-4.5-13.38-4.5v11.87s5.75 3.13 14.63 3.13 21.25-3 21.25-16.25M628.5 99.66h7.88v16.13h-7.88zm12.25 0h7.88v16.13h-7.88zm17.44-.37c-7 0-9.5 2.93-9.5 2.93v2.2s1.87-1.7 5.37-1.7 4.13 1.5 4.13 1.5v.44h-.06v11.13h8.12v-9.38h.13v-2.56c0-1.31-1.2-4.56-8.2-4.56m19.82 8.25c0-4.07 3.75-5.63 7.75-5.63s7.06 1.31 7.06 1.31v-2.8s-3.81-1.2-8.37-1.2-15.25 1.25-15.25 8.63 10.37 8.06 15.5 8.06 8.18-1.12 8.18-1.12v-3s-2.93 1.06-7.8 1.06-7.07-1.25-7.07-5.31" class="st0"/><ellipse cx="700.125" cy="113.474" class="st0" rx="3.125" ry="2.625"/><path d="m296 117.66 323.25-9.62L296 99.16zm-24.58.13V99.12l-110 10.17z" class="st0"/><path d="m13.25 71.79 33.5-13.13s-9.12-10.5-22-4.75-11.5 17.88-11.5 17.88m6 14.62 47.13-18.5-.13 55.25L103 138.04s-27 15.5-59.5 2.75S2.25 100.66 0 93.16c4.75 7.13 12.5 17.25 28.25 19.13.1 0 24.63 4.25 37.5-20.88C62 89.16 55 86.04 48.5 82.8c-13.62 18.37-29.25 3.62-29.25 3.62" class="st1"/><path d="M111.25 13.04v18.62L91.38 39.3V6.79L96 4.9S70.45-7.08 40.13 6.41C10.63 19.54 1.13 48.8 1 49.8c12.5-18.75 31.38-17.75 31.38-17.75 22.37-.63 33.24 21 34 23.87 0-7.37.12-39 .12-39l21.75-8.87.13 101.25 23.37 8v15.37s31.75-19.75 31.13-61.12c0-31.88-22.25-53.13-31.63-58.5m.08 99.5-19.75-5.67-.08-64.17 19.83-7.75z" class="st1"/></svg>