<svg xmlns="http://www.w3.org/2000/svg" width="2500" height="429" viewBox="0 -0.001 1324.04 227.131"><g fill="#008163"><path d="M194.2 98.75h-86.68c-2.47 0-3.57 1.65-3.57 4.1v17.57c0 1.92.83 3.02 3.29 3.02H158v71.32c-9.6 1.64-8.78 3.3-31.28 3.3-69.67 0-88.33-48.3-88.33-90.8 0-54.05 29.37-80.09 77.37-80.09 28.24 0 63.9 10.14 65.27 10.14 1.1 0 2.47-.82 2.74-2.2 0 0 4.4-19.74 4.4-21.93 0-1.37-.28-3.3-3.01-4.4 0 0-26.07-8.78-62-8.78C40.86 0 0 52.4 0 116.32c0 69.65 43.34 110.8 117.68 110.8 33.74 0 76.78-11.8 76.78-11.8 1.37-.26 3.03-2.2 3.03-4.39v-107.8c0-1.91-1.1-4.38-3.3-4.38m167.05 99.02h-98.19v-75.69h89.7c2.19 0 3.02-2.75 3.02-4.94v-16.2c0-1.91-.56-3.55-4.12-3.55h-88.6V27.7h93.26c2.46 0 3.56-.82 3.56-2.46V6.6c0-1.66-1.37-2.75-3.28-2.75H227.94c-3.02 0-4.11 1.91-4.11 4.94v210.37c0 2.76.82 4.12 4.1 4.12H361.8c2.48 0 3.57-2.2 3.57-4.12v-18.38c0-1.64-1.37-3.01-4.12-3.01M580 3.85h-23.04c-3 0-3.83 1.65-3.83 4.94v129.74a209 209 0 0 0 1.37 23.84L420.65 3.85h-26.61c-3.56 0-4.4 2.19-4.4 3.57V219.7c0 1.93 1.1 3.56 3.3 3.56h23.03c1.65 0 3.57-2.2 3.57-3.84V80.93c0-14.26-.55-23.6-.55-23.6l135.77 162.66c2.2 2.48 3.85 3.29 6.32 3.29h19.46c1.66 0 3.03-1.9 3.03-4.37V8.8c0-3.03-1.1-4.94-3.57-4.94m169.24 193.92h-98.2v-75.69h89.69c2.18 0 3-2.75 3-4.94v-16.2c0-1.91-.54-3.55-4.1-3.55h-88.59V27.7h93.26c2.46 0 3.57-.82 3.57-2.46V6.6c0-1.66-1.37-2.75-3.31-2.75H615.93c-3.01 0-4.11 1.91-4.11 4.94v210.37c0 2.76.82 4.12 4.11 4.12H749.8c2.46 0 3.55-2.2 3.55-4.12v-18.38c0-1.64-1.36-3.01-4.1-3.01m153.75 0h-86.15V8.24c0-1.37 0-4.4-2.19-4.4h-34.54c-1.94 0-2.48 1.92-2.48 3.84v211.75a3.75 3.75 0 0 0 3.84 3.85h120.97c1.37 0 3.01-.83 3.01-3.28v-19.77c0-1.1-1.1-2.46-2.46-2.46m159.07 0h-98.19v-75.69h89.7c2.2 0 3-2.75 3-4.94v-16.2c0-1.91-.53-3.55-4.1-3.55h-88.6V27.7h93.27c2.46 0 3.55-.82 3.55-2.46V6.6c0-1.66-1.37-2.75-3.28-2.75H928.76c-3.02 0-4.1 1.91-4.1 4.94v210.37c0 2.76.82 4.12 4.1 4.12h133.85c2.5 0 3.57-2.2 3.57-4.12v-18.38c0-1.64-1.37-3.01-4.12-3.01m184.2-8.23c-1.36 0-23.57 9.07-49.64 9.07-31.01 0-83.65-17.02-83.65-91.08 0-31.82 11.23-80.08 77.06-80.08 20.58 0 53.76 8.75 55.7 8.75 1.08 0 1.62-.26 2.2-1.62 0 0 5.47-21.94 5.47-23.33 0-1.36-1.37-2.73-2.74-3.28 0 0-20.57-7.95-57.87-7.95-58.44 0-117.68 37.57-117.68 116.56 0 80.92 58.16 110.55 111.08 110.55 37.32 0 64.73-9.9 64.73-9.9 1.66-.53 3.03-1.91 3.03-3 0-2.2-4.93-23.04-4.93-23.04-.29-1.1-1.38-1.65-2.75-1.65m75.66-172.63a26.5 26.5 0 0 0-5.87-8.93 27 27 0 0 0-8.96-5.87q-5.2-2.1-11.4-2.1c-4.01 0-7.79.72-11.25 2.18a28 28 0 0 0-15.16 15 28 28 0 0 0-2.2 11.15 30 30 0 0 0 2.1 11.37 27 27 0 0 0 5.86 8.93q3.75 3.75 8.97 5.9 5.18 2.14 11.4 2.14 5.97 0 11.2-2.22a29 29 0 0 0 9.12-6.05 29 29 0 0 0 6.08-9.03 28 28 0 0 0 2.22-11.2c0-4.05-.7-7.84-2.11-11.27m-6.01 20.36a21 21 0 0 1-11.4 11.87 22.5 22.5 0 0 1-9.1 1.78q-4.7 0-8.68-1.63a20 20 0 0 1-6.93-4.68q-2.9-3-4.55-7.24a26 26 0 0 1-1.64-9.32q0-4.59 1.57-8.62a21.2 21.2 0 0 1 11.45-11.93 23 23 0 0 1 9.06-1.74q4.65 0 8.68 1.6a20 20 0 0 1 6.92 4.62 22 22 0 0 1 4.54 7.25 26 26 0 0 1 1.63 9.41q0 4.59-1.55 8.63"/><path d="M1303.97 29.36q4.81-2.25 4.82-7.4c0-2.47-.9-4.57-2.7-6.15q-2.68-2.4-8.17-2.4h-13.35v28.77h6.3V30.62h6.68l4.65 11.56h6.6l-5.29-12.6zm-1.66-7.45c0 2.69-1.72 4-5.26 4h-6.19v-7.83h6.63q4.81.01 4.82 3.83"/></g></svg>