<svg xmlns="http://www.w3.org/2000/svg" width="2500" height="2500" viewBox="0 0 192.756 192.756"><g fill-rule="evenodd" clip-rule="evenodd"><path fill="#fff" d="M0 0h192.76v192.76H0z"/><path d="M12.96 102.48a10 10 0 0 0 2.85 1.43 10.3 10.3 0 0 0 6.19 0 10 10 0 0 0 2.86-1.43 10 10 0 0 0 2.3-2.28 10 10 0 0 0 1.91-5.94q0-1.59-.48-3.1A10 10 0 0 0 24.87 86 10 10 0 0 0 22 84.56a10.3 10.3 0 0 0-6.2 0 10 10 0 0 0-5.13 3.73 10 10 0 0 0-1.44 2.87 10.3 10.3 0 0 0 0 6.19 10 10 0 0 0 3.72 5.13m22-57.96H2.84L18.93 81z"/><path d="M45.16 132.43a8 8 0 0 1-.57 2.89 7.6 7.6 0 0 1-4.08 4.08 8 8 0 0 1-2.89.57H36.1a8 8 0 0 1-2.89-.57 7.6 7.6 0 0 1-4.08-4.08 8 8 0 0 1-.57-2.89l-.01-17.1-17.4-.02v12.91c0 2.63.53 5.25 1.53 7.68a20 20 0 0 0 4.35 6.5 20 20 0 0 0 6.5 4.35 20 20 0 0 0 7.68 1.53h10.76a20 20 0 0 0 7.67-1.53 20 20 0 0 0 6.5-4.34 20 20 0 0 0 4.36-6.51 20 20 0 0 0 1.52-7.68V44.6l-16.87.02zm128.52-17.1-.01 15.19c0 .98-.2 1.97-.57 2.88a8 8 0 0 1-1.64 2.45 8 8 0 0 1-2.44 1.63 8 8 0 0 1-2.89.57h-1.53a8 8 0 0 1-2.88-.57 8 8 0 0 1-2.45-1.63 7.6 7.6 0 0 1-2.2-5.33v-85.9l-16.87-.02.01 101.53h49.7l.01-30.82zm-47.53-15.2a16 16 0 0 0-3.57-5.27 14 14 0 0 0-5-3.2 17 17 0 0 0 4.25-2.93 14 14 0 0 0 3.15-4.26 12 12 0 0 0 1.16-5.21l.01-18.48a16.4 16.4 0 0 0-4.77-11.53 16.3 16.3 0 0 0-11.52-4.77H76.31v101.65h34.83a16.3 16.3 0 0 0 15.05-10.05 16 16 0 0 0 1.24-6.25q-.02-11.69 0-23.37a16 16 0 0 0-1.28-6.33m-33.47-46.9 8.83-.03a7.5 7.5 0 0 1 5.33 2.21 7.5 7.5 0 0 1 2.2 5.33l.06 20.38a6.3 6.3 0 0 1-3.87 5.79 6 6 0 0 1-2.4.47l-10.15.04zm16.58 79.73a6.3 6.3 0 0 1-3.39 3.39 6 6 0 0 1-2.4.48l-10.79.03v-40.3l9.47-.03a7.5 7.5 0 0 1 5.33 2.2 7.6 7.6 0 0 1 2.2 5.33l.05 26.5a6 6 0 0 1-.47 2.4"/></g></svg>