<svg xmlns="http://www.w3.org/2000/svg" width="2500" height="2500" viewBox="0 0 192.756 192.756"><g fill-rule="evenodd" clip-rule="evenodd"><path fill="#fff" d="M0 0h192.76v192.76H0z"/><path d="M82.5 107.32c-7.94-2.21-9.71-12.56-4.7-18.4 5-5.83 15.92-5.1 23.13-3.8v9.39c-3.72-.63-9.65-2.37-12.44 1.71a2.77 2.77 0 0 0 1.82 3.71c3.12 1.09 7.61.77 10.62-.2v7.32c-9 1.83-12.14 2.03-18.44.27"/><path d="M78.17 107.91H65.42l-1.08-2.8h-5.7v-6.29h4l-2.42-6.4-5.02 15.57H30.04V97.37l-4.44 10.54h-6.13l-4.74-10.54v10.54l-11.9.08V85.13l16.2-.04 3.66 11.1 3.56-11.1h16.03l-.01 21.31 7.87-21.3h20.12zm57.87-22.78-10.06 11.75 10.53 11.11h-14.86l-6.18-6.9v6.9h-12.5V85.13h12.5v8.65l5.87-8.65zm43.9-.03v7.2h-15.4v2.16h15.4v5.49h-15.4v1.72h15.4v6.24h-27.88V85.1zm-42.94.03h12.67v22.86H137zm48.85 23.02c-2.24 0-4.07-1.44-4.07-3.2s1.83-3.2 4.07-3.2 4.07 1.43 4.07 3.2-1.83 3.2-4.07 3.2"/></g></svg>