<svg xmlns="http://www.w3.org/2000/svg" width="2500" height="363" viewBox="0 0 599.918 87.193"><path d="M100.31 31.75c-2.21 6.24-16.15 12.76-50.4 5.02l4.46 20.22c34.24 6.22 54.54 1.1 66.13-11.07 8.59-9.02 10.27-20.68 3.22-29.61C116.25 6.85 99.72 0 78.84 0 48.98 0 27.7 8.65 15.9 41.12L0 84.77h27.8l15.8-44.15c6.49-18.15 20.12-21.16 35.24-21.16 15.87 0 23.53 6.53 21.47 12.29M375.49 50.9l-1.07-.46a54 54 0 0 1 19.67-3.82c4.07 0 13.13.69 16.94 2.87.93.52 1.78 1.34 1.32 2.36-1.68 3.8-26.47 3.59-36.86-.95m50.77-10.2c-6.57-3.52-17.4-6.32-27.99-6.75-21.97-.9-47.02 6.6-52 24.3-2.9 10.2 6.98 23.96 32.7 27.86 12.86 1.98 33.3 1.48 48.01-3.39l5.5-15.12c-29.84 10.25-68.83 7.28-67.53-8.08 14.44 9.26 35.5 8.38 51.1 5.83 27-4.41 26.61-15.9 10.21-24.66M471.8 50.9l-1.06-.46a53 53 0 0 1 19.66-3.82c4.09 0 13.12.69 16.94 2.87.93.52 1.78 1.34 1.32 2.36-1.68 3.8-26.46 3.59-36.86-.95m50.77-10.2c-6.56-3.52-17.4-6.32-28-6.75-21.95-.9-47 6.6-52 24.3-2.88 10.2 7 23.96 32.7 27.86 12.87 1.98 33.32 1.48 48.02-3.39l5.5-15.12c-29.83 10.25-68.82 7.28-67.52-8.08 14.44 9.26 35.5 8.38 51.09 5.83 27-4.41 26.62-15.9 10.2-24.66m20.3 13-11.03 31.09h25.44l8.49-23.92c2.08-6.07 3.85-10.6 11.27-10.6h17.87l5.02-14.33h-32.93c-11.02 0-19.9 5.47-24.14 17.77m-426.2 31.08h26.34l17.8-48.85h-26.34zM287.56 58.5c2.45-6.72 9.86-9.83 16.34-9.83 6.43 0 12.58 3.78 10.2 10.33l-9.4 25.78h25.44l9.54-26.2c4.96-13.6-5.77-24.86-29.8-24.86-26.74 0-41.9 8.74-47.74 24.75l-9.59 26.31H278zm-78.48-9.34c10.28.44 18.57 5.6 17.1 12.33-1.42 6.48-11.44 10.89-21.84 10.44-10.28-.43-18.56-5.62-17.1-12.34 1.43-6.46 11.44-10.88 21.84-10.43m3.59-15.18c-26.5-1.13-50.11 10.2-53.28 24.68-3.14 14.26 14.76 27.33 41.36 28.45 26.5 1.13 50.11-10.2 53.29-24.68 3.12-14.25-14.78-27.34-41.37-28.45"/></svg>