<svg xmlns="http://www.w3.org/2000/svg" width="146" height="24" fill="none"><g fill-rule="evenodd" clip-rule="evenodd"><path fill="#1B8EFB" d="M11.24 23.99h4.33L13.59 6.25zm18.44-12.57-.08-.1c0-.02-1.6-2.02-2.87-1.45-.5.22-1 1.92-1.1 3.29l-.8 10.6c1.47-.22 2.78-.6 3.5-1.3 1.83-1.6 2.35-4.64 2.35-7.27v-2.76zM12.14.02c-.6 0-2.63-.08-4.73.1l2.5 18.77L12.42.02zM25.9 8.06c1.84-.84 3.68.35 4.76 1.48-.06-3.3-.6-5.91-2-7.5C27.29.42 23.93.1 21.93.03l1.56 15.2.17-2.24c.05-.68.42-4.1 2.26-4.94zM14.88.02l2.06 18.43L19.5.02zm3.3 23.97c1.02 0 2.58.04 4.2-.03L20.59 6.54zM3.23 8.27 4.7.52c-.9.23-1.68.54-2.2.99C.62 3.05 0 6.59 0 10.02v4.4q.54-.17.81-.42c1.33-1.33 2.2-4.58 2.42-5.72m1.94.38c-.03.19-.93 4.7-2.96 6.74a4.4 4.4 0 0 1-2.14 1.05c.2 2.44.8 3.99 1.58 5.15 1.3 2.03 4.98 2.37 6.95 2.4L5.98 4.42z"/><path fill="#1A1B1B" d="M141.52 6.94c-1.3-.37-2.69-.64-4.04-.64-2.93 0-6.17 1.3-6.17 4.97 0 3.91 4.81 4.16 4.81 6.67 0 1.28-1.3 1.73-2.54 1.73a6.6 6.6 0 0 1-3.55-1.21l-.8 3.24c1.35.7 2.85.94 4.34.94 3.19 0 6.42-1.21 6.42-5.27 0-3.82-4.8-4.55-4.8-6.52 0-1.24 1.38-1.58 2.48-1.58s2.07.34 3.05.73zm-10.32-.27h-3.71l-1.52 7.85c-.47 2.33-1.41 4.97-3.99 4.97-1.2 0-2.02-.88-2.02-2.18 0-1.15.22-2.2.42-3.27l1.38-7.37h-3.71l-1.5 7.58c-.19.97-.46 2.21-.46 3.4 0 3.09 1.85 5 4.65 5 1.6 0 3.01-.85 4.04-1.88l-.2 1.51h3.63c.06-.48.2-1.3.36-2.24zm-30.44 15.61h3.71l1.52-7.85c.47-2.34 1.41-4.97 3.99-4.97 1.19 0 2.02.88 2.02 2.18 0 1.15-.22 2.21-.42 3.27l-1.38 7.37h3.7l1.5-7.58c.2-.97.47-2.21.47-3.4 0-3.09-1.85-5-4.65-5-1.6 0-3.01.85-4.04 1.88l.2-1.52h-3.63c-.06.49-.2 1.3-.36 2.24zM94.79 6.3c-4.8 0-8.44 4-8.44 9.22 0 4.4 2.43 7.13 6.47 7.13 5.04 0 8.5-4 8.5-9.5 0-4.3-2.69-6.84-6.53-6.84m-1.67 13.18c-2.13 0-2.9-1.6-2.9-3.67 0-2.82 1.46-6.37 4.4-6.37 2.18 0 2.82 1.7 2.82 3.73 0 2.67-1.44 6.3-4.31 6.3zm-6.05-17.8a12 12 0 0 0-5.01-.93c-3.71 0-7.2 1.94-7.2 6.39 0 5.64 6.6 5.03 6.6 8.85 0 2.28-1.83 3.3-3.69 3.3-1.66 0-3.24-.69-4.73-1.45l-1 3.61a15 15 0 0 0 5.5 1.19c4.24 0 7.95-1.88 7.95-7.07 0-5.88-6.58-5.67-6.58-9.06 0-1.82 1.85-2.43 3.23-2.43s2.88.46 4.02 1.1l.91-3.49zM63.24 12.95c.72-2.15 1.72-3.66 4.01-3.66 1.56 0 2.36.93 2.36 2.6q0 .53-.09 1.06zm9.55 2.8q.34-1.74.36-3.5c0-3.97-2.33-5.94-5.84-5.94-4.68 0-8.11 4.67-8.11 9.52 0 4.86 2.77 6.82 6.86 6.82 1.52 0 3.1-.39 4.54-.88l.47-3.2a10 10 0 0 1-4.37 1.12c-2.55 0-3.96-1.07-3.96-3.95zm-23.83 6.54h3.71l1.33-7c.47-2.52 1.75-5.1 4.37-5.1.47 0 1 .1 1.41.25l.78-3.97a6 6 0 0 0-1.41-.16c-1.72 0-3.55 1.61-4.21 3.3l.44-2.93h-3.54l-.33 2.09zM42.3 4.45h1.22c1.66 0 3.24.46 3.24 2.61 0 2.64-2.19 3.85-4.32 3.85h-1.38zm-1.91 9.8h2.24c4.32 0 8.16-2.52 8.16-7.64s-4.9-5.49-8.46-5.49h-3.27l-4.1 21.16h3.88z"/></g><path fill="#1A1B1B" d="M142.53 8.45q0-.33.13-.6.12-.29.34-.5.2-.2.5-.31a1.6 1.6 0 0 1 1.68.32q.21.2.34.48.12.28.12.61a1.5 1.5 0 0 1-.46 1.1 1.6 1.6 0 0 1-2.18 0 1.5 1.5 0 0 1-.47-1.1m2.81 0a1.3 1.3 0 0 0-.36-.91 1.3 1.3 0 0 0-.9-.37 1.3 1.3 0 0 0-.89.37q-.17.17-.26.4a1 1 0 0 0-.1.51q0 .27.1.52a1.2 1.2 0 0 0 .66.67q.23.1.5.1t.5-.1.39-.27.26-.4.1-.52m-1.58.89h-.27V7.57h.68q.32 0 .48.12t.15.38q0 .24-.13.35a.6.6 0 0 1-.33.14l.5.78h-.3l-.47-.77h-.3zm0-1h.33q.25 0 .34-.06.1-.08.1-.22a.3.3 0 0 0-.09-.2q-.08-.06-.3-.06h-.38z"/></svg>