<svg xmlns="http://www.w3.org/2000/svg" width="2500" height="2500" viewBox="0 0 192.756 192.756"><g fill-rule="evenodd" clip-rule="evenodd"><path fill="#fff" d="M0 0h192.76v192.76H0z"/><path d="M67.7 106.2h-4.4v10.2h4.4c3.96.05 6.4-1.53 6.4-5.07s-2.43-5.13-6.4-5.13m.3 8.54h-2.3v-6.83H68c3.3-.06 3.79 1.77 3.79 3.42 0 1.58-.5 3.41-3.79 3.41m16.85-2.07h2.92v2.14c-1.16.12-1.89.24-2.99.24-2.37 0-3.84-1.4-3.84-3.72s1.46-3.72 3.84-3.72c1.53 0 2.81.42 2.81 1.7h2.5c-.06-2.44-2.25-3.3-5.67-3.3-2.5 0-5.98 1.23-5.98 5.32 0 4.03 3.3 5.3 5.86 5.3 1.64 0 2.31-.05 2.93-.12.97-.06 1.95-.18 2.86-.42v-5.13h-5.24zm20.2-6.47H94.72v1.95h4.03v8.24h2.32v-8.24h3.96zm2.68 0h3.23l5.07 10.2h-2.44l-1.1-2.14h-6.35l-.98 2.13h-2.62zm-.73 6.35h4.63l-2.31-4.33h-.07zm12.32-6.35H117v10.2h8.24v-1.66h-5.92zm33.56 5.19v-.06c1.59-.25 2.63-1.16 2.63-2.44 0-2.08-2.2-2.69-4.4-2.69h-5.43v10.2H148v-4.1h3.3c.91 0 1.4.8 1.52 1.35q.16 1.46.43 2.74h2.44c-.49-.55-.55-1.83-.67-2.44-.25-1.4 0-2.2-2.14-2.56m-1.89-.8H148v-2.68h2.99c1.22 0 1.9.37 1.9 1.28 0 .92-.68 1.4-1.9 1.4m11.05-4.57c-4.22 0-6.1 2.26-6.1 5.3 0 3 1.88 5.32 6.1 5.32s6.16-2.32 6.16-5.31c0-3.05-1.95-5.31-6.17-5.31m0 9.03c-2.68 0-3.6-1.95-3.6-3.72s.92-3.72 3.6-3.72 3.67 1.95 3.67 3.72-.98 3.72-3.66 3.72m15-3.3c0 1.71-.24 3.36-2.92 3.36s-2.93-1.65-2.93-3.35v-5.56h-2.32v6.4c0 2.7 2.14 4.16 5.25 4.16 3.05 0 5.24-1.47 5.24-4.15v-6.4h-2.31zm7.15-5.55h-3.91v10.2h2.32v-3.91h2.38c2.87-.06 4.45-1.28 4.45-3.11 0-2.63-2.38-3.18-5.24-3.18m-1.59 4.58v-2.87c1.95.06 4.52-.36 4.52 1.47 0 1.77-2.57 1.34-4.52 1.4m-107.21 5.61h2.32V106.2h-2.32zm15.8 0h2.32V106.2h-2.32zm47.96-3.72h2.87v2.14c-1.1.12-1.83.24-2.93.24-2.44 0-3.9-1.4-3.9-3.72s1.46-3.72 3.9-3.72c1.47 0 2.75.42 2.75 1.7h2.5c0-2.44-2.26-3.3-5.61-3.3-2.57 0-6.04 1.23-6.04 5.32 0 4.03 3.35 5.3 5.85 5.3a23 23 0 0 0 2.93-.12c1.04-.06 1.95-.18 2.87-.42v-5.13h-5.19zM2.83 76v26.97h55.35V76z"/><path d="M57.5 76.6v25.7h-54V76.6zM2.84 105.85v10.86h55.35v-10.86z"/><path d="M57.5 106.45v9.58h-54v-9.59zm11.05-15.08h8.79c2.38.07 3.9 2.81 4.09 4.28.36 2.37.67 4.76 1.28 7.13h5.43c-1.34-1.46-1.59-4.63-1.95-6.34-.55-3.6-.13-5.55-3.6-6.29v-.06c4.09-.67 4.88-3.54 4.88-7.02 0-5.43-5.5-6.9-11.23-6.95H63.31v26.66h5.24zm0-11.35h8.85c3.17.07 5 1.6 5 3.97 0 2.32-1.83 3.6-5 3.66h-8.85zm69.26 20.32c0 .74.06 1.6.24 2.45h4.34c-.12-.55-.3-1.1-.3-2.02V90.7c0-5.61-4.7-6.95-9.4-6.95-2.5 0-4.95.3-6.84 1.16-1.83.85-3.11 2.32-3.11 4.63h4.88c-.12-.85 1.53-2.68 4.82-2.68 2.5 0 4.88 1.04 4.88 2.32v1.7c-2.8-.05-7.93.07-10.74 1.04-4.2 1.4-4.94 4.52-4.94 5.8 0 3.66 3.24 5.61 7.57 5.61 3.17 0 7.01-.85 8.6-2.99m-.49-5.67c-.12 3.78-2.74 5.12-6.59 5.12-1.95 0-3.9-.24-3.78-2.8 0-1.9 3.66-3.54 10.37-2.87zm12.39-2.99c.12-2.68 4.57-4.64 6.77-4.64 3.42 0 4.15 2.63 4.21 4.64v11.1h4.4V90.77c0-.6-.07-1.83-.43-2.99-.85-2.68-5.19-4.45-7.5-4.45-3.55 0-5.99 1.52-7.4 3.23l-.11-.12v-2.8h-4.4v19.15h4.46zm-30.02-15.56h-5.25v26.67h5.25zm-19.04 7.63c7.14.3 12.14 4.2 12.14 9.82 0 5.8-4.51 9.76-12.14 9.76-7.5 0-12.57-4.02-12.02-9.76.85-9.7 11.9-9.82 12.02-9.82m0 16.47c4.27 0 7.02-3.72 7.02-6.65s-2.5-6.53-7.02-6.53v-.06.06c-4.4 0-6.9 3.6-6.9 6.53s2.69 6.65 6.9 6.65m76.95 3.11c3.05 0 5.97-.97 7.5-3.17 0 .86.43 2.14.61 2.63h4.21c-.12-1.23-.24-2.5-.24-3.73V76.12h-4.46v10.31c-1.34-1.59-4.33-2.74-6.7-2.74-7.2 0-10.87 4.88-10.87 9.88 0 4.7 3.17 9.76 9.95 9.76m1.1-16.47c3.78 0 6.52 4.15 6.52 6.71s-2.5 6.35-6.22 6.35a6.66 6.66 0 0 1-6.9-6.35c0-2.87 2.14-6.71 6.6-6.71"/></g></svg>