<svg xmlns="http://www.w3.org/2000/svg" xml:space="preserve" id="Layer_1" x="0" y="0" version="1.1" viewBox="0 0 427.8 340.6"><style>.st0{fill:#fff}</style><g id="Logos"><path d="M53.8 256.9h3.7v23.2c0 7.1.5 10.4 5.4 10.4s5.4-3.4 5.4-10.4v-23.2H72v23.5c0 4.8-.1 8.1-1.9 10.3-1.5 1.9-4.1 3.1-7.2 3.1-3.2 0-5.7-1.2-7.2-3.1-1.8-2.3-1.9-5.6-1.9-10.3zm30 2.8v33.4h-3.3v-36.2h5.4l7.5 20.5q1.65 4.5 3 9c-.3-3.1-.3-5.8-.3-7.9v-21.6h3.3v36.2h-3.7l-9.1-25c-1.2-3-2.1-5.8-2.8-8.4m24.2-2.8h3.7v36.2H108zm9.3 0h3.7l5.4 24.7q.45 1.95.9 5.7c.3-1.8.6-3.7 1.1-5.8l5.4-24.5h3.6l-8.3 36.2h-3.5zm26.6 0h16.3v3.4h-12.6v12.5h9.2v3.3h-9.2v13.7h13v3.4h-16.7zm23.9 0h6.6c7.8 0 11.7 3.1 11.7 9.5 0 4.4-2 7.5-5.7 8.7l5.9 18h-4l-5.5-17.2c-1.3.1-2.6.1-3.9.1h-1.5v17.1h-3.7zm6.8 15.9q7.5 0 7.5-6.3c0-4.3-2.5-6.3-7.5-6.3h-3.2v12.6zm19.7 10.7c.3 4.7 2.1 7 5.8 7 3.2 0 5.3-2.4 5.3-6 0-3.9-2.6-6.2-7-9.5-4.5-3.3-7-5.7-7-10.6 0-4.6 3.4-8.2 8-8.2 5.4 0 8.7 3.6 8.9 9.8h-3.5c-.3-4.5-2.1-6.7-5.3-6.7-3 0-4.9 2-4.9 5.1 0 1.6.7 3.1 1.8 4.3 1.9 2 4.4 3.6 6.8 5.5 3.9 3.1 5.7 6 5.7 10.2 0 5.8-3.6 9.5-8.9 9.5-5.7 0-9.1-3.7-9.2-10.3zm28-26.6h5.1l7.9 36.2h-3.9l-2.1-10.7h-9.1l-2.1 10.7h-3.7zm6.2 22.2-3.8-18.9-3.8 18.9zm13.8-22.2h3.7v32.8h11.4v3.5h-15.1zm34.8 0h5.1l7.9 36.2h-3.9l-2.1-10.7H275l-2.1 10.7h-3.7zm6.2 22.2-3.8-18.9-3.8 18.9zm12.5-22.2h3.7v23.2c0 7.1.5 10.4 5.4 10.4s5.4-3.4 5.4-10.4v-23.2h3.7v23.5c0 4.8-.2 8.1-1.9 10.3-1.5 1.9-4.1 3.1-7.2 3.1-3.2 0-5.7-1.2-7.2-3.1-1.8-2.3-1.9-5.6-1.9-10.3zm25.8 0h6.7c8.6 0 12 5.6 12 18 0 12.5-3.4 18.2-12 18.2h-6.7zm3.7 32.8c.7.1 1.4.1 2 .1 7.2 0 9.3-4.3 9.3-15 0-10.6-2.1-14.8-9.2-14.8-.7 0-1.4.1-2.1.1zm22.5-32.8h3.7v36.2h-3.7zM358 275c0-12.5 3.5-18.8 10-18.8s10 6.3 10 18.8-3.5 18.8-10 18.8c-6.6.1-10-6.3-10-18.8m3.9-.8c0 11 1.6 16.3 6.1 16.3 4.4 0 6.1-5.1 6.1-15.4 0-10.4-1.8-15.4-6.1-15.4-4.3-.1-6.1 4.7-6.1 14.5" class="st0"/><g id="UA_Logo_1_"><path id="UA_1_" d="M251.3 182.7v-26l74.8-3.6-.4-5.2h-74.3v-45.5a22.9 22.9 0 1 0-45.8 0V148h-4.4l-8.4 11.6 12.8-.6v20.6c0 7.3-5.9 13.2-13.3 13.3-7.3 0-13.2-5.9-13.3-13.3l.1-65.3v-1s.3-8.8-4.8-13.3c-6.8-5.9-20.8-2.5-20.8-2.5 17.4.1 15.9 15 15.9 15v67.1a22.9 22.9 0 1 0 45.8 0v-21.1l26.6-1.3V182s-.5 8.8 4.6 13.3c6.8 5.9 20.8 2.5 20.8 2.5-16.6.1-15.9-15.1-15.9-15.1m-36.1-34.8v-45.5c0-7.3 5.9-13.2 13.3-13.3 7.3 0 13.2 5.9 13.3 13.3l.1 45.5z" class="st0"/></g><path d="M66.8 144.3 216 57.8l149.2 86.5L216 230.8zm317.5 0L216 46.7 47.7 144.3 216 241.9z" class="st0"/></g></svg>