<svg xmlns="http://www.w3.org/2000/svg" width="2500" height="2500" viewBox="0 0 192.756 192.756"><g fill-rule="evenodd" clip-rule="evenodd"><path fill="#fff" d="M0 0h192.76v192.76H0z"/><path d="M185.62 109.1a1.73 1.73 0 0 0-3.45 0 1.73 1.73 0 0 0 1.72 1.73 1.74 1.74 0 0 0 1.73-1.73M70.2 110.3v-1.6a3.7 3.7 0 0 1-1.42 1.34q-.88.49-1.85.5-1 0-1.77-.47a3 3 0 0 1-1.16-1.33 7 7 0 0 1-.34-2.33V99.7h2.6v4.86q0 2.23.14 2.75.15.5.53.8.37.28.97.28.68 0 1.19-.4.53-.38.73-.96.19-.59.18-2.86V99.7h2.6v10.6zm14.16 0h-2.43v-1.56q-.6.9-1.42 1.35-.83.44-1.65.45a3.7 3.7 0 0 1-2.92-1.47 6.4 6.4 0 0 1-1.2-4.1q0-2.7 1.17-4.1a3.7 3.7 0 0 1 2.98-1.41q1.65 0 2.85 1.48V95.7h2.62z"/><path fill="#fff" d="M77.4 104.77q0 1.69.45 2.45.62 1.09 1.76 1.09.9 0 1.52-.81.64-.84.64-2.47 0-1.81-.6-2.62a1.9 1.9 0 0 0-1.58-.8q-.93 0-1.55.8a3.8 3.8 0 0 0-.64 2.36"/><path d="M86.17 98.27V95.7h2.6v2.57zm0 12.02V99.7h2.6v10.6zm3.69-5.45a6 6 0 0 1 .64-2.69 4.6 4.6 0 0 1 1.8-2 5 5 0 0 1 2.63-.7q2.24.01 3.66 1.58c1.42 1.57 1.41 2.35 1.41 3.93q.01 2.4-1.43 3.99a4.7 4.7 0 0 1-3.62 1.59q-1.35 0-2.6-.66a4.5 4.5 0 0 1-1.85-1.93 7 7 0 0 1-.64-3.1"/><path fill="#fff" d="M92.53 105q0 1.58.7 2.41c.7.83 1.03.83 1.72.83q1 0 1.7-.83.7-.82.7-2.43 0-1.55-.7-2.4-.7-.83-1.7-.83-1.04 0-1.73.83t-.69 2.42"/><path d="M102.33 106.4v-2.8h2.45v2.8zm9.58-6.7v2.24h-2.14v4.27q0 1.29.05 1.5a.6.6 0 0 0 .27.36q.23.13.54.14.44-.01 1.26-.26v1.93c-.67.47-1.3.64-2.2.66q-.87-.01-1.54-.26-.69-.27-1-.66-.33-.42-.44-1.09-.1-.48-.1-1.98v-4.6h-1.45V99.7h1.45v-2.1l3.16-1.6v3.7zm10.14 7.23a5 5 0 0 1-1.65 2.8 5 5 0 0 1-2.9.8q-2.75 0-4.07-1.8a6 6 0 0 1-1.04-3.65q0-2.64 1.36-4.12 1.38-1.5 3.47-1.5 2.36 0 3.71 1.57 1.38 1.54 1.31 4.78h-6.98q.02 1.23.67 1.93t1.6.69q.67 0 1.1-.35.45-.37.68-1.15z"/><path fill="#fff" d="M119.47 104.08a2.7 2.7 0 0 0-.63-1.84 2 2 0 0 0-1.44-.63 2 2 0 0 0-1.52.66 2.7 2.7 0 0 0-.6 1.81z"/><path d="M136.93 95.7v5.34a4.2 4.2 0 0 1 3.3-1.58q.97 0 1.75.36a2.9 2.9 0 0 1 1.74 2.16q.16.67.16 2.1v6.21h-2.85v-5.59q-.01-1.68-.17-2.12a1.4 1.4 0 0 0-.57-.7q-.42-.27-1.04-.27-.7 0-1.25.33-.55.35-.82 1.02-.25.7-.25 2.02v5.31h-2.85V95.7zm18.02 14.6h-2.74v-5.4q0-1.73-.19-2.23a1.5 1.5 0 0 0-.57-.78 1.6 1.6 0 0 0-.94-.27q-.74-.01-1.28.4a2 2 0 0 0-.78 1.04 8 8 0 0 0-.22 2.44v4.8h-2.74V99.7h2.55v1.55a4.15 4.15 0 0 1 5.09-1.45q.75.34 1.14.85.4.52.53 1.17.16.66.16 1.9zm1.96-12.03V95.7h2.6v2.57zm0 12.02V99.7h2.6v10.6zm13.1-6.95h-2.72q-.13-.83-.59-1.26-.49-.41-1.24-.41a2 2 0 0 0-1.62.72q-.6.73-.6 2.42 0 1.89.62 2.65.6.78 1.64.78.77 0 1.27-.45.5-.46.7-1.55h2.65c-.28 1.26-.8 2.67-1.59 3.33q-1.17.96-3.15.96-2.26-.01-3.6-1.46a5.8 5.8 0 0 1-1.34-4.06q0-2.64 1.35-4.09 1.34-1.45 3.64-1.46 1.87 0 2.98.84 1.08.83 1.56 2.54zm-37.23 0h-2.7c-.09-.55-.26-.98-.6-1.26q-.46-.41-1.23-.41-1.01 0-1.63.72-.6.73-.6 2.42 0 1.89.62 2.65c.62.76.97.78 1.66.78q.76 0 1.26-.45.49-.46.69-1.55h2.67c-.27 1.26-.81 2.67-1.6 3.33q-1.17.96-3.16.96-2.25-.01-3.59-1.46-1.34-1.47-1.33-4.06-.01-2.64 1.33-4.09a4.8 4.8 0 0 1 3.64-1.46q1.86 0 2.99.84 1.07.83 1.55 2.54zm40.95-.41h-2.36c.03-1.02.46-2.14 1.37-2.73a5.3 5.3 0 0 1 2.9-.74q1.74 0 2.6.45.84.44 1.2 1.12.34.69.35 2.52l-.04 3.26q0 1.4.12 2.07c.09.43.03.91.3 1.41h-2.4c-.07-.19-.23-.46-.25-.83-.01-.17-.08-.27-.1-.32a4 4 0 0 1-1.43 1.03q-.75.36-1.62.36-1.5 0-2.4-.9a3 3 0 0 1-.86-2.24q-.01-.88.4-1.58.38-.72 1.1-1.09a9 9 0 0 1 2.09-.66q1.81-.35 2.51-.68v-.28q0-.8-.36-1.14-.35-.35-1.4-.34-.69-.01-1.08.29-.39.28-.64 1.02m-117.81 0h-2.37c.04-1.02.47-2.14 1.38-2.73.68-.43 1.6-.74 2.89-.74q1.75 0 2.6.45c.85.45.97.67 1.2 1.12q.35.69.35 2.52l-.03 3.26q0 1.4.12 2.07c.09.43.03.91.3 1.41h-2.4c-.07-.19-.25-.46-.25-.83-.01-.17-.08-.27-.1-.32q-.67.69-1.43 1.03a4 4 0 0 1-1.62.36q-1.52 0-2.4-.9a3 3 0 0 1-.88-2.24q0-.88.41-1.58.4-.72 1.1-1.09a9 9 0 0 1 2.08-.66q1.84-.35 2.53-.68v-.28q0-.8-.36-1.14-.38-.35-1.4-.34-.7-.01-1.09.29a2 2 0 0 0-.63 1.02"/><path fill="#fff" d="M177.23 105.2q-.53.18-1.59.44-1.08.25-1.43.48-.5.4-.5 1 0 .57.4 1t1.05.43q.7.01 1.33-.5a1.7 1.7 0 0 0 .64-.91q.08-.37.08-1.37zm-117.83 0q-.5.18-1.58.44-1.08.25-1.42.48-.5.4-.5 1-.01.57.4 1t1.03.43q.73.01 1.35-.5.49-.36.62-.91.1-.37.1-1.37z"/><path d="M28.92 77.34a19.1 19.1 0 0 1 19.04 19.05c0 10.47-8.55 19.03-19.04 19.03S9.87 106.86 9.87 96.39a19.1 19.1 0 0 1 19.05-19.05"/><path fill="#fff" d="M28.92 78.2c10 0 18.17 8.18 18.17 18.19a18.2 18.2 0 0 1-18.17 18.15 18.2 18.2 0 0 1-18.17-18.15A18.2 18.2 0 0 1 28.92 78.2"/><path d="M39.5 110.38 28.98 79.06l-10.56 31.32z"/><path fill="#fff" d="m33.25 94.5-5.08 15h-8.54L29 81.8zm-4.16 15 4.6-13.63 4.6 13.63zm156.32-.4c0 .85-.7 1.52-1.52 1.52a1.5 1.5 0 0 1-1.52-1.52 1.52 1.52 0 0 1 3.04 0"/><path d="M183.25 110h.24v-.81h.62c.4 0 .28.34.33.57l.04.24h.3c-.11-.17-.08-.2-.1-.45-.03-.34-.03-.36-.24-.5.2-.14.26-.22.26-.46-.03-.44-.31-.49-.6-.49h-.85z"/><path fill="#fff" d="M184.1 108.3c.15 0 .38.06.34.39-.01.24-.17.28-.34.28h-.6v-.66z"/></g></svg>