<svg xmlns="http://www.w3.org/2000/svg" width="2500" height="337" viewBox="0 0 101.595 13"><path d="M24.25.26 20.83 6.6v3.86h-1.6V6.5L15.83.26H12.2l3.78 6.82v5.66h8.1V7.09L27.83.26zM0 .26h5.36c3.83 0 6.12 2.33 6.12 6.19 0 4.09-2.32 6.29-6.12 6.29H0zm3.25 9.68h1.54c2.46-.05 3.44-1.01 3.44-3.5 0-2.28-1.22-3.38-3.44-3.38H3.25zM29.4.26h3.33l4.34 7.69h.03V.26h3.06v12.48h-3.34L32.5 4.96h-.04v7.78H29.4zm17.07 0h3.3l4.66 12.48h-3.39l-.77-2.24h-4.35l-.78 2.24H41.8zm.2 7.83h2.84l-1.38-4.37h-.04zm20.07-.5c0 3.61-1.66 5.41-5.44 5.41s-5.43-1.8-5.43-5.42V.26h3.25v7.52c0 1.6.6 2.43 2.18 2.43 1.6 0 2.19-.83 2.19-2.44V.28h3.25zM69.6.25h5.37c3.82 0 6.11 2.33 6.11 6.19 0 4.09-2.32 6.29-6.11 6.29H69.6zm3.25 9.68h1.54c2.47-.05 3.44-1.01 3.44-3.51 0-2.27-1.22-3.37-3.44-3.37h-1.54zM83.56.26h3.25v12.48h-3.25zM95.44 0c3.94 0 6.16 2.88 6.16 6.5S99.38 13 95.44 13s-6.14-2.88-6.14-6.5S91.52 0 95.44 0m0 10.2c2.1 0 2.9-1.85 2.9-3.7s-.8-3.7-2.9-3.7-2.9 1.85-2.9 3.7.8 3.7 2.9 3.7"/></svg>