<svg xmlns="http://www.w3.org/2000/svg" aria-label="Focal" class="w-36 h-6 lg:w-56 lg:h-8" viewBox="0 30 350 65"><path d="M133.9 49.5h-25.1v7.7h16.7v8.2h-16.7v18.3h-8V41.5h33.1zm37.5 12.9c0-3.7-1.4-6.9-4.1-9.5s-6.1-4-9.9-4q-5.85 0-9.9 3.9c-2.7 2.6-4.1 5.8-4.1 9.6s1.4 7.1 4.1 9.8 6.1 4.1 9.9 4.1c3.9 0 7.2-1.4 9.9-4.1s4.1-6 4.1-9.8m8 0c0 6-2.2 11.2-6.5 15.5s-9.5 6.5-15.5 6.5-11.2-2.2-15.5-6.5-6.5-9.5-6.5-15.4c0-6.1 2.1-11.3 6.4-15.5 4.2-4.2 9.5-6.3 15.7-6.3 5.9 0 11 2.1 15.4 6.4 4.3 4.4 6.5 9.5 6.5 15.3m45.5 12.5c-4.7 6.4-10.7 9.6-18.1 9.6-6 0-11.1-2.1-15.4-6.4-4.2-4.3-6.4-9.4-6.4-15.4 0-6.1 2.1-11.3 6.4-15.5q6.45-6.3 15.6-6.3c7.5.2 13.3 3.3 17.6 9.3l-6.5 4.5q-4.65-5.7-11.4-5.7c-3.8 0-7.1 1.3-9.7 4-2.7 2.6-4 5.9-4 9.6 0 3.9 1.3 7.1 4 9.8s5.9 4 9.7 4c4.2 0 8-1.9 11.4-5.8zm33.2-8.5-6.9-14.7-7 14.7zm17 17.3h-8.9l-4.3-9.2h-21.5l-4.4 9.2h-8.9l20-42.2h8zm38.5 0h-33.1V41.5h8v34.2h25.1zM37 44.5 33.1 36c14.7-4.7 41.9-3.5 53.7 2.6l-3.4 7.6c-7.3-1-19.7 3.7-23.7 6.5 4.6.8 12.9 3.4 17.2 5.2l-3.6 7.6C68 66.9 61.5 69 57.5 75.8c1.8 3.3 4.9 5.7 9.4 7.3l-3.8 8.6c-5.8-3.1-10.3-8.1-10.8-13.8-.3-2.7.6-5.9 1.6-7.9 1.8-3.2 6.4-7.2 9.9-8.5C59 60 49.9 58.4 45 58.2l.7-7.7c4-2.8 12.6-6.4 17.7-7.7-6.7-.6-19.8.1-26.4 1.7m271.5 1.3c0 2.1 1.7 3.9 3.9 3.9 2.1 0 3.9-1.7 3.9-3.9 0-2.1-1.7-3.9-3.9-3.9s-3.9 1.8-3.9 3.9m-.4 0c0-2.3 1.9-4.3 4.3-4.3s4.3 1.9 4.3 4.3-1.9 4.3-4.3 4.3-4.3-1.9-4.3-4.3"/><path d="M311.7 45.6h.3q1.2 0 1.2-.9c0-.6-.4-.8-1.2-.8h-.3zm1.8 2.9-1.6-2.2h-.2v2.2h-.9v-5.4h1c.8 0 1.3.1 1.6.4q.6.45.6 1.2c0 .4-.1.7-.3 1s-.6.5-.9.5l1.8 2.3z"/></svg>