<svg xmlns="http://www.w3.org/2000/svg" width="2500" height="2500" viewBox="0 0 192.756 192.756"><g fill-rule="evenodd" clip-rule="evenodd"><path fill="#fff" d="M0 0h192.76v192.76H0z"/><path d="m32.6 93.22-13.8-5.66h18.6l1.04-7.72H13.86c-4.5 0-8.6 4-8.45 8.5.1 3.31 1.6 5.66 4.7 6.95l13.43 5.6H3.9l-1.07 7.77 24.07.06c5.03.01 9.34-2.72 10.19-7.9.65-3.99-.88-6.13-4.48-7.6m5.6 15.5h13.88l1.23-9.96h4.37l-1.24 9.96h13.88l3.59-28.88H60.04l-1.25 10.02h-4.36l1.24-10.02H41.8zm69.92-13.55c-.35 3.1-1.84 5.62-3.83 8.12a18 18 0 0 1-5.76 4.53 20 20 0 0 1-7.84 2.02c-4.08.33-7.5-.4-10.85-2.97a12 12 0 0 1-3.98-5.48c-.6-1.78-.4-3.48-.17-5.27l2.02-16.28h14.21l-2.52 19.98h3.67l2.52-19.98h14.3zm14.2 13.55h-12.2l2.24-17.8h19.86l.5-3.41H112.8l.96-7.67h24.67c9.6 0 9.78 13.74-1.2 16.1l10.18 5.5 2.65-21.6h30.69l-.73 6.6h-16.5l-.48 3.98h16.55l-.84 7.78h-16.66l-.48 3.91h16.63l-.72 6.6h-30.93l-.5 4.2-22.57-13.7zm64.61-26.26h-.51v1.1h.53q.45 0 .65-.12t.2-.4q0-.3-.21-.44t-.66-.13m.12-.41q.69 0 1.04.23t.35.68a1 1 0 0 1-.2.59 1 1 0 0 1-.56.3l.74 1.53h-.7l-.68-1.42h-.62v1.42h-.63v-3.33zm2.48 1.75q0-.54-.19-1a2.6 2.6 0 0 0-1.37-1.38 3 3 0 0 0-1-.2 3 3 0 0 0-.97.2 2 2 0 0 0-.8.53q-.38.38-.58.85a2.5 2.5 0 0 0 0 1.93q.19.46.55.83a2.5 2.5 0 0 0 2.77.57q.46-.2.85-.56.36-.35.55-.8t.19-.97m-2.56-2.97a3 3 0 0 1 2.1.88 3 3 0 0 1 .84 2.06q0 .6-.22 1.13a3 3 0 0 1-.63.93 3 3 0 0 1-.98.65q-.54.23-1.11.23a3 3 0 0 1-1.12-.23 3 3 0 0 1-.96-.65q-.41-.43-.63-.95a2 2 0 0 1-.22-1.11q0-.58.23-1.12t.66-.98q.4-.41.92-.63.52-.2 1.12-.2"/></g></svg>