<svg xmlns="http://www.w3.org/2000/svg" width="2500" height="2500" viewBox="0 0 192.744 192.744"><g fill-rule="evenodd" clip-rule="evenodd"><path fill="#fff" d="M0 0h192.74v192.74H0z"/><path d="M187.04 106.44a2.85 2.85 0 1 0 0 5.7 2.85 2.85 0 0 0 2.84-2.85 2.84 2.84 0 0 0-2.85-2.85m0 5.36a2.5 2.5 0 0 1-2.5-2.51 2.5 2.5 0 0 1 2.5-2.5 2.5 2.5 0 0 1 2.5 2.5 2.5 2.5 0 0 1-2.5 2.51"/><path d="M188.5 108.54c0-.27-.12-.55-.36-.69s-.5-.15-.78-.15h-1.39v3.18h.4v-1.47h.71l.91 1.47h.46l-.96-1.47c.57-.01 1-.24 1-.87m-1.53.57h-.6v-1.13h.91c.4 0 .83.06.83.55 0 .65-.7.58-1.14.58m-16.64-15.98 5.83-6.22c.34-.46.5-.78.5-1.05 0-.46-.39-.64-1.62-.64h-1.47v-3.93h15.92v3.93h-2.1c-2.41 0-2.86.36-6.23 4.61l-9.22 9.96v6.08c0 1.55.78 2.1 3.03 2.1h3.48v3.8h-22.3v-3.8h3.48c2.25 0 3.04-.55 3.04-2.1v-6.08l-10.87-12.02c-1.8-2.1-1.54-2.55-6.54-2.55v-3.93h20.17v3.93h-1.44c-1.46 0-2.08.27-2.08.82 0 .46.45.82.73 1.19l5.5 5.99c.65.68 1.45.76 2.19-.09M35 81.3h4.87v10.96h-4.5c-.4-2.2-1.76-3.04-3.02-4.2-2.25-2.07-7.14-3.8-11.25-3.8-5.3 0-9.79 1.65-9.79 4.07 0 6.72 30.35 1.37 30.35 14.07 0 6.63-6.5 10.33-18.17 10.33-4.04 0-10.16-1.25-13.77-3.17-1.13-.65-1.6.62-1.82 2.21h-5v-11.33h4.51c1 2.88 2.37 3.47 3.63 4.62 2.19 2 7.4 3.47 12.17 3.42 7.2-.07 9.68-1.64 9.68-3.93 0-2.28-2.45-2.83-10.34-4.06l-6.7-1.1C8.3 98.24 2.79 96.55 2.79 90.52c0-6.26 6.97-10.2 17.98-10.2 4.64 0 8.52.63 12.25 2.73 1.03.67 2 .75 1.98-1.76m94.95 18.35.1-12.18c0-1.6-.84-2.15-3.22-2.15h-2.79v-3.8h17.77v3.8h-2.31c-2.38 0-3.22.55-3.22 2.15v24.53l-6.95-.05L106.8 90.6v15.49c0 1.55.84 2.15 3.21 2.15h3.1v3.74H94.65v-3.74h3.06c2.38 0 3.2-.6 3.2-2.15V87.46c0-1.6-.82-2.15-3.2-2.15h-3.06v-3.8h15.96zM70.42 80.1c-14.16 0-23.02 6.27-23.02 16.32 0 9.87 8.74 16.08 22.6 16.08 14.7 0 23.27-6.12 23.27-16.58 0-9.42-9.24-15.81-22.85-15.81m-.32 28.42c-7.84 0-12.34-4.53-12.34-12.34 0-7.63 4.7-12.16 12.73-12.16 7.71 0 12.22 4.62 12.22 12.48 0 7.68-4.57 12.02-12.6 12.02"/></g></svg>